<svg width="68" height="53" viewBox="0 0 68 53" fill="none" xmlns="http://www.w3.org/2000/svg">
<path d="M67.8165 26.4695C67.8165 11.893 55.9235 0 41.347 0C26.7705 0 14.8165 11.893 14.8165 26.5305C14.8165 34.0932 14.3286 53 0.23999 53H41.347C55.9235 53 67.8165 41.107 67.8165 26.4695Z" fill="#FEFEFE"/>
<path d="M41.6504 27.083L44.151 29.5836L39.8817 33.9138C39.4548 34.3408 38.7839 34.3408 38.357 33.9138L37.3812 32.938C36.9542 32.5111 36.9542 31.8402 37.3812 31.4133L41.6504 27.083Z" fill="#E2313F"/>
<path d="M38.357 20.313L37.3202 21.3498C36.8933 21.7767 36.8933 22.4476 37.3202 22.8745L44.151 29.7054L45.9197 27.9367C46.3467 27.5097 46.3467 26.8388 45.9197 26.4119L39.8818 20.3739C39.4548 19.886 38.7839 19.886 38.357 20.313Z" fill="#9F1F22"/>
</svg>
