<svg width="68" height="53" viewBox="0 0 68 53" fill="none" xmlns="http://www.w3.org/2000/svg">
<g clip-path="url(#clip0_680_4488)">
<path d="M67.7883 26.4695C67.7883 11.893 55.8953 0 41.3188 0C26.7423 0 14.7883 11.893 14.7883 26.5305C14.7883 34.0932 14.3004 53 0.211792 53H41.3188C55.8953 53 67.7883 41.107 67.7883 26.4695Z" fill="#9F1F22"/>
<path d="M41.9897 26.4695L44.4903 28.9701L40.221 33.3003C39.7941 33.7272 39.1232 33.7272 38.6963 33.3003L37.7205 32.3245C37.2935 31.8976 37.2935 31.2267 37.7205 30.7997L41.9897 26.4695Z" fill="#E5E6EA"/>
<path d="M38.6963 19.6997L37.6594 20.7365C37.2325 21.1634 37.2325 21.8343 37.6594 22.2612L44.4903 29.0921L46.259 27.3234C46.6859 26.8964 46.6859 26.2256 46.259 25.7986L40.221 19.7607C39.7941 19.2727 39.1232 19.2727 38.6963 19.6997Z" fill="white"/>
</g>
<defs>
<clipPath id="clip0_680_4488">
<rect width="67.5765" height="53" fill="white" transform="translate(0.211792)"/>
</clipPath>
</defs>
</svg>
