<svg width="187" height="208" viewBox="0 0 187 208" fill="none" xmlns="http://www.w3.org/2000/svg">
<path d="M93.3334 176.333C93.3334 187.7 96.4334 198.24 101.703 207.333H21C9.53004 207.333 0.333374 198.137 0.333374 186.667V21.3333C0.333374 15.8522 2.51075 10.5955 6.3865 6.71975C10.2623 2.844 15.5189 0.666626 21 0.666626H31.3334V73L57.1667 57.5L83 73V0.666626H145C150.481 0.666626 155.738 2.844 159.614 6.71975C163.489 10.5955 165.667 15.8522 165.667 21.3333V115.263C162.257 114.747 158.847 114.333 155.333 114.333C121.13 114.333 93.3334 142.13 93.3334 176.333ZM155.333 135L124.333 166H145V207.333H165.667V166H186.333L155.333 135Z" fill="#DCDCDC"/>
</svg>
