<svg width="213" height="208" viewBox="0 0 213 208" fill="none" xmlns="http://www.w3.org/2000/svg">
<path d="M191.667 155.667C197.148 155.667 202.404 153.489 206.28 149.614C210.156 145.738 212.333 140.481 212.333 135V21.3333C212.333 15.8522 210.156 10.5955 206.28 6.71975C202.404 2.844 197.148 0.666626 191.667 0.666626H82.7533C86.37 6.96996 88.3333 14.1 88.3333 21.3333H191.667V135H98.6667V155.667M140 52.3333V73H78V207.333H57.3333V145.333H36.6667V207.333H16V124.667H0.5V73C0.5 67.5188 2.67737 62.2622 6.55313 58.3864C10.4289 54.5107 15.6855 52.3333 21.1667 52.3333H140ZM67.6667 21.3333C67.6667 26.8144 65.4893 32.0711 61.6135 35.9468C57.7378 39.8226 52.4811 42 47 42C41.5189 42 36.2622 39.8226 32.3865 35.9468C28.5107 32.0711 26.3333 26.8144 26.3333 21.3333C26.3333 15.8522 28.5107 10.5955 32.3865 6.71975C36.2622 2.844 41.5189 0.666626 47 0.666626C52.4811 0.666626 57.7378 2.844 61.6135 6.71975C65.4893 10.5955 67.6667 15.8522 67.6667 21.3333Z" fill="#DCDCDC"/>
</svg>
