<svg width="42" height="37" viewBox="0 0 42 37" fill="none" xmlns="http://www.w3.org/2000/svg">
<mask id="path-1-outside-1_912_19179" maskUnits="userSpaceOnUse" x="-3.42773" y="-2.5" width="49" height="42" fill="black">
<rect fill="white" x="-3.42773" y="-2.5" width="49" height="42"/>
<path d="M1.35627 36.468L7.75627 10.484L9.42027 17.908C6.9456 17.908 4.85493 17.14 3.14827 15.604C1.52693 14.068 0.716266 12.02 0.716266 9.46C0.716266 6.81466 1.52693 4.724 3.14827 3.188C4.85493 1.56666 6.90293 0.755997 9.29227 0.755997C11.7669 0.755997 13.7723 1.60933 15.3083 3.31599C16.8443 4.93733 17.6123 6.98533 17.6123 9.46C17.6123 10.228 17.5696 11.0387 17.4843 11.892C17.3989 12.66 17.1856 13.556 16.8443 14.58C16.5883 15.604 16.1616 16.9267 15.5643 18.548L9.42027 36.468H1.35627ZM25.5483 36.468L31.9483 10.484L33.6123 17.908C31.1376 17.908 29.0469 17.14 27.3403 15.604C25.7189 14.068 24.9083 12.02 24.9083 9.46C24.9083 6.81466 25.7189 4.724 27.3403 3.188C29.0469 1.56666 31.0949 0.755997 33.4843 0.755997C35.9589 0.755997 37.9643 1.60933 39.5003 3.31599C41.0363 4.93733 41.8043 6.98533 41.8043 9.46C41.8043 10.228 41.7616 11.0387 41.6763 11.892C41.5909 12.66 41.3776 13.556 41.0363 14.58C40.7803 15.604 40.3536 16.9267 39.7563 18.548L33.6123 36.468H25.5483Z"/>
</mask>
<path d="M1.35627 36.468L-1.55668 35.7505L-2.47231 39.468H1.35627V36.468ZM7.75627 10.484L10.6836 9.82786L4.84332 9.76652L7.75627 10.484ZM9.42027 17.908V20.908H13.1671L12.3476 17.2519L9.42027 17.908ZM3.14827 15.604L1.08503 17.7819L1.11287 17.8082L1.14137 17.8339L3.14827 15.604ZM3.14827 3.188L5.2115 5.36586L5.21451 5.36299L3.14827 3.188ZM15.3083 3.31599L13.0784 5.32289L13.104 5.35139L13.1304 5.37923L15.3083 3.31599ZM17.4843 11.892L20.4659 12.2233L20.4677 12.2069L20.4694 12.1905L17.4843 11.892ZM16.8443 14.58L13.9982 13.6313L13.9618 13.7406L13.9338 13.8524L16.8443 14.58ZM15.5643 18.548L12.7492 17.5109L12.7375 17.5428L12.7264 17.575L15.5643 18.548ZM9.42027 36.468V39.468H11.5631L12.2581 37.441L9.42027 36.468ZM25.5483 36.468L22.6353 35.7505L21.7197 39.468H25.5483V36.468ZM31.9483 10.484L34.8756 9.82786L29.0353 9.76652L31.9483 10.484ZM33.6123 17.908V20.908H37.3591L36.5396 17.2519L33.6123 17.908ZM27.3403 15.604L25.277 17.7819L25.3049 17.8082L25.3334 17.8339L27.3403 15.604ZM27.3403 3.188L29.4035 5.36586L29.4065 5.363L27.3403 3.188ZM39.5003 3.31599L37.2704 5.32289L37.296 5.35139L37.3224 5.37923L39.5003 3.31599ZM41.6763 11.892L44.6579 12.2233L44.6597 12.2069L44.6614 12.1905L41.6763 11.892ZM41.0363 14.58L38.1902 13.6313L38.1538 13.7406L38.1258 13.8524L41.0363 14.58ZM39.7563 18.548L36.9412 17.5109L36.9295 17.5428L36.9184 17.575L39.7563 18.548ZM33.6123 36.468V39.468H35.7551L36.4501 37.441L33.6123 36.468ZM4.26921 37.1855L10.6692 11.2015L4.84332 9.76652L-1.55668 35.7505L4.26921 37.1855ZM4.8289 11.1401L6.4929 18.5641L12.3476 17.2519L10.6836 9.82786L4.8289 11.1401ZM9.42027 14.908C7.62404 14.908 6.26607 14.3739 5.15516 13.3741L1.14137 17.8339C3.4438 19.9061 6.26716 20.908 9.42027 20.908V14.908ZM5.2115 13.4261C4.27764 12.5414 3.71627 11.3281 3.71627 9.46H-2.28373C-2.28373 12.7119 -1.22378 15.5946 1.08503 17.7819L5.2115 13.4261ZM3.71627 9.46C3.71627 7.47373 4.29808 6.2312 5.2115 5.36585L1.08503 1.01014C-1.24421 3.21679 -2.28373 6.1556 -2.28373 9.46H3.71627ZM5.21451 5.36299C6.35439 4.28012 7.65912 3.756 9.29227 3.756V-2.244C6.14675 -2.244 3.35548 -1.14679 1.08202 1.013L5.21451 5.36299ZM9.29227 3.756C10.9908 3.756 12.1592 4.3016 13.0784 5.32289L17.5381 1.3091C15.3853 -1.08294 12.543 -2.244 9.29227 -2.244V3.756ZM13.1304 5.37923C14.0796 6.38114 14.6123 7.66276 14.6123 9.46H20.6123C20.6123 6.3079 19.6089 3.49352 17.4861 1.25276L13.1304 5.37923ZM14.6123 9.46C14.6123 10.1176 14.5757 10.8281 14.4992 11.5935L20.4694 12.1905C20.5635 11.2492 20.6123 10.3384 20.6123 9.46H14.6123ZM14.5026 11.5607C14.4478 12.0544 14.2969 12.7353 13.9982 13.6313L19.6903 15.5287C20.0743 14.3767 20.3501 13.2656 20.4659 12.2233L14.5026 11.5607ZM13.9338 13.8524C13.7152 14.727 13.3295 15.9359 12.7492 17.5109L18.3793 19.5851C18.9937 17.9174 19.4613 16.481 19.7547 15.3076L13.9338 13.8524ZM12.7264 17.575L6.58243 35.495L12.2581 37.441L18.4021 19.521L12.7264 17.575ZM9.42027 33.468H1.35627V39.468H9.42027V33.468ZM28.4612 37.1855L34.8612 11.2015L29.0353 9.76652L22.6353 35.7505L28.4612 37.1855ZM29.0209 11.1401L30.6849 18.5641L36.5396 17.2519L34.8756 9.82786L29.0209 11.1401ZM33.6123 14.908C31.816 14.908 30.4581 14.3739 29.3472 13.3741L25.3334 17.8339C27.6358 19.9061 30.4592 20.908 33.6123 20.908V14.908ZM29.4035 13.4261C28.4696 12.5414 27.9083 11.3281 27.9083 9.46H21.9083C21.9083 12.7119 22.9682 15.5946 25.277 17.7819L29.4035 13.4261ZM27.9083 9.46C27.9083 7.47373 28.4901 6.2312 29.4035 5.36585L25.277 1.01014C22.9478 3.21679 21.9083 6.1556 21.9083 9.46H27.9083ZM29.4065 5.363C30.5464 4.28012 31.8511 3.756 33.4843 3.756V-2.244C30.3387 -2.244 27.5475 -1.14679 25.274 1.013L29.4065 5.363ZM33.4843 3.756C35.1828 3.756 36.3512 4.3016 37.2704 5.32289L41.7301 1.3091C39.5773 -1.08294 36.735 -2.244 33.4843 -2.244V3.756ZM37.3224 5.37923C38.2716 6.38114 38.8043 7.66276 38.8043 9.46H44.8043C44.8043 6.3079 43.8009 3.49352 41.6781 1.25276L37.3224 5.37923ZM38.8043 9.46C38.8043 10.1176 38.7677 10.8281 38.6912 11.5935L44.6614 12.1905C44.7555 11.2492 44.8043 10.3384 44.8043 9.46H38.8043ZM38.6946 11.5607C38.6398 12.0544 38.4889 12.7353 38.1902 13.6313L43.8823 15.5287C44.2663 14.3767 44.5421 13.2656 44.6579 12.2233L38.6946 11.5607ZM38.1258 13.8524C37.9072 14.727 37.5215 15.9359 36.9412 17.5109L42.5713 19.5851C43.1857 17.9174 43.6533 16.481 43.9467 15.3076L38.1258 13.8524ZM36.9184 17.575L30.7744 35.495L36.4501 37.441L42.5941 19.521L36.9184 17.575ZM33.6123 33.468H25.5483V39.468H33.6123V33.468Z" fill="white" mask="url(#path-1-outside-1_912_19179)"/>
</svg>
